<svg width="21" height="19" viewBox="0 0 21 19" fill="none" xmlns="http://www.w3.org/2000/svg">
<path d="M10.515 0C16.2948 0 20.9801 4.25367 20.9801 9.50095C20.9801 14.7473 16.2948 19 10.515 19C4.73529 19.0009 0.0499878 14.7473 0.0499878 9.50095C0.0499878 4.25367 4.73529 0 10.515 0ZM6.81324 12.1445C6.68275 12.0009 6.49552 11.9094 6.29162 11.8895C6.08772 11.8696 5.88335 11.923 5.72226 12.0382C5.56117 12.1534 5.45615 12.3213 5.4297 12.5059C5.40324 12.6906 5.45744 12.8772 5.5807 13.026C6.16775 13.7045 6.91703 14.2529 7.77187 14.6297C8.62671 15.0066 9.56473 15.202 10.515 15.2013C12.4611 15.2013 14.2618 14.3911 15.4452 13.0317C15.5091 12.9583 15.5564 12.8742 15.5845 12.7842C15.6126 12.6942 15.6208 12.6 15.6088 12.5071C15.5968 12.4142 15.5648 12.3243 15.5145 12.2426C15.4643 12.1609 15.3968 12.089 15.3159 12.031C15.2351 11.973 15.1424 11.93 15.0433 11.9045C14.9441 11.879 14.8404 11.8715 14.7381 11.8824C14.6357 11.8933 14.5367 11.9224 14.4467 11.968C14.3568 12.0137 14.2776 12.0749 14.2137 12.1483C13.7734 12.6564 13.2116 13.067 12.5708 13.3491C11.9301 13.6311 11.2271 13.7773 10.515 13.7765C9.05231 13.7765 7.70049 13.1685 6.81324 12.1445ZM7.37614 6.41376C7.20135 6.40927 7.02734 6.43665 6.8644 6.49428C6.70146 6.5519 6.55291 6.63861 6.42752 6.74927C6.30214 6.85993 6.20247 6.99229 6.13441 7.13853C6.06635 7.28477 6.03129 7.44191 6.03129 7.60066C6.03129 7.75942 6.06635 7.91656 6.13441 8.0628C6.20247 8.20904 6.30214 8.3414 6.42752 8.45206C6.55291 8.56272 6.70146 8.64943 6.8644 8.70705C7.02734 8.76468 7.20135 8.79206 7.37614 8.78757C7.71647 8.77883 8.03963 8.64995 8.27694 8.42831C8.51426 8.20668 8.64702 7.90976 8.64702 7.60066C8.64702 7.29157 8.51426 6.99465 8.27694 6.77302C8.03963 6.55138 7.71647 6.4225 7.37614 6.41376ZM13.6539 6.41376C13.4791 6.40927 13.3051 6.43665 13.1422 6.49428C12.9792 6.5519 12.8307 6.63861 12.7053 6.74927C12.5799 6.85993 12.4802 6.99229 12.4122 7.13853C12.3441 7.28477 12.3091 7.44191 12.3091 7.60066C12.3091 7.75942 12.3441 7.91656 12.4122 8.0628C12.4802 8.20904 12.5799 8.3414 12.7053 8.45206C12.8307 8.56272 12.9792 8.64943 13.1422 8.70705C13.3051 8.76468 13.4791 8.79206 13.6539 8.78757C13.9942 8.77883 14.3174 8.64995 14.5547 8.42831C14.792 8.20668 14.9248 7.90976 14.9248 7.60066C14.9248 7.29157 14.792 6.99465 14.5547 6.77302C14.3174 6.55138 13.9942 6.4225 13.6539 6.41376Z" fill="#A17B17"/>
</svg>
